<svg width="350" height="224" viewBox="0 0 350 224" fill="none" xmlns="http://www.w3.org/2000/svg">
<path d="M162.374 18.1806C160.446 18.9252 158.518 23.0205 157.834 25.0061C156.839 27.7984 157.648 29.5358 157.15 30.9009C156.279 33.3829 152.424 37.4161 151.615 39.9601C150.807 42.6283 150.247 48.3989 150.931 51.1291C151.366 52.9906 153.419 56.5275 154.849 57.8305C155.906 58.8233 158.705 59.9402 160.135 60.3746C162.063 60.9951 168.095 61.6776 168.095 61.6776C168.095 61.6776 161.379 79.1757 158.394 84.636C157.585 86.1252 154.476 90.2205 154.476 90.2205C154.476 90.2205 135.446 81.9679 126.055 78.307C123.754 77.3762 119.712 73.1568 117.349 72.4122C115.359 71.7917 112.063 72.7845 109.078 72.7845C108.705 72.7845 108.456 74.2117 108.829 74.3978C109.949 74.9563 115.608 78.0588 117.722 79.548C118.406 79.9823 120.334 80.789 120.21 81.5956C119.961 83.2089 113.68 82.2782 113.991 83.8914C114.364 85.7529 122.138 83.6432 124.687 84.4499C129.6 85.9391 138.12 92.1441 142.473 94.9363C144.401 96.1773 148.381 98.5973 150.06 100.211C150.807 100.893 151.802 102.755 152.548 103.437C153.481 104.306 155.657 105.795 156.901 106.291C158.953 107.098 163.307 108.153 165.483 107.905C167.722 107.594 172.075 105.547 173.754 103.996C175.247 102.506 177.548 98.9075 178.294 96.984C179.227 94.7502 179.911 89.9103 180.16 87.4903C180.347 85.5668 180.098 79.7341 180.098 79.7341C180.098 79.7341 187.436 83.9535 189.426 85.9391C190.048 86.5596 191.167 88.1108 191.416 88.9795C191.665 89.7862 191.914 91.6477 191.416 92.3923C186.814 99.2798 180.222 110.511 176.74 116.654C174.128 121.245 169.09 130.553 166.851 135.331C164.613 140.171 160.073 149.85 158.953 155.001C158.58 156.676 158.332 160.151 158.643 161.826C158.891 163.005 159.886 165.177 160.633 166.108C169.401 176.284 195.334 201.414 195.334 201.414L196.391 204.392L211.565 201.414L209.886 198.994C209.886 198.994 204.041 196.202 202.548 194.712C198.568 190.741 193.966 180.131 190.794 175.415C188.804 172.437 185.322 167.659 182.71 165.177C181.031 163.626 174.625 158.848 174.625 158.848L182.274 147.058C182.274 147.058 189.861 149.975 192.411 150.285C194.401 150.533 198.444 149.912 200.434 149.664C202.175 149.416 205.595 148.361 207.337 148.237C208.953 148.113 212.25 148.485 213.866 148.796C216.603 149.354 221.764 151.712 224.563 152.146C225.558 152.332 227.735 152.767 228.73 152.332C229.103 152.146 229.725 151.091 229.725 151.091L247.511 172.437C247.511 172.437 251.615 166.232 252.859 164.06C254.041 161.95 257.026 157.793 256.963 155.435C256.963 155.435 244.028 130.863 239.613 122.921C236.441 117.274 230.347 106.602 226.926 101.141C222.075 93.5092 206.342 70.5507 206.342 70.5507C206.342 70.5507 218.157 81.0992 222.511 83.8294C224.874 85.3186 230.16 87.6765 232.896 88.2349C235.508 88.7313 240.359 88.4831 242.909 87.9867C244.65 87.6144 247.449 86.6216 248.63 85.3806C249.376 84.636 250.682 82.8986 250.745 81.8438C250.869 80.4167 250.309 77.5624 249.936 76.1352C248.879 72.102 245.21 64.4698 242.847 61.0571C240.794 58.1408 235.508 53.2388 232.834 50.943C229.787 48.3369 222.759 44.4898 219.899 41.6975C217.225 39.0294 214.177 31.6455 211.006 29.5358C200.62 22.5241 174.003 13.589 162.374 18.1806Z" fill="#668269"/>
<path d="M169.028 11.4172C175.123 14.4577 167.163 25.0062 172.76 28.7292C175.869 30.5907 179.041 26.8677 180.285 31.2112C180.285 33.0727 180.969 36.1131 177.113 37.4161C182.088 43.0006 182.648 53.5491 191.417 54.1696C193.282 54.2937 194.091 51.6876 195.77 49.8261C199.004 46.2893 203.854 55.4106 208.829 54.7901C213.805 53.5491 211.939 47.9646 215.048 44.2416C219.402 39.2776 223.755 45.4826 228.73 44.8621C229.974 44.2416 231.218 43.6211 231.839 42.3801C234.949 38.0366 234.327 32.4522 237.436 28.1087C241.79 23.1447 250.496 23.1447 251.74 15.0782C252.984 8.8732 248.63 2.04772 242.412 0.806724C229.352 -1.05477 223.133 11.9757 213.183 16.3192C200.123 21.2832 190.484 14.7059 177.424 10.3624C169.339 7.25991 160.322 18.1807 157.834 25.0062C153.73 36.051 163.742 32.7624 170.894 39.8981C174.936 43.9314 173.382 56.0311 173.382 56.0311C175.247 61.6156 183.145 54.604 186.13 52.184" stroke="#E6E6E6" stroke-width="2" stroke-miterlimit="10" stroke-linecap="round" stroke-linejoin="round"/>
<path d="M182.089 147.555L175.062 158.289C175.062 158.289 182.151 163.44 184.079 165.611C188.308 170.389 196.144 184.04 200.062 191.114C201.679 193.968 204.228 196.202 207.276 197.443L210.198 198.622C211.318 199.863 212.686 202.531 211.442 204.951C210.82 206.13 208.084 207.433 207.524 208.674C207.027 209.791 206.343 213.762 206.094 215.003C205.472 217.423 202.984 222.759 202.984 222.759L189.489 223.38C189.489 223.38 189.925 220.712 190.547 220.091C191.666 218.85 194.838 217.547 195.708 216.182C197.823 212.893 196.144 201.91 196.144 201.91L161.877 167.163C158.644 163.936 157.586 159.096 159.079 154.815C160.509 150.843 161.691 146.748 163.308 142.839C164.987 138.806 166.977 135.021 169.029 131.174C171.89 125.775 174.751 120.439 177.611 115.041C181.094 108.463 184.639 101.824 189.179 95.9293C190.36 94.4401 191.604 92.8268 191.79 90.9653C191.977 88.8556 190.795 86.8079 189.179 85.4428C187.562 84.0777 185.758 82.5886 183.892 81.5958C180.161 79.6102 176.554 77.6246 173.569 74.7082C172.45 73.5913 171.33 72.3503 170.708 70.9232C168.905 66.952 171.579 60.0024 173.445 56.0933" stroke="#E6E6E6" stroke-width="2" stroke-miterlimit="10" stroke-linecap="round" stroke-linejoin="round"/>
<path d="M124.749 84.45C121.64 84.5741 117.722 84.2638 114.613 84.6982C113.307 84.2638 114.239 83.5192 115.234 83.0849C116.229 82.6505 119.339 82.2162 120.272 81.5957C117.349 78.9896 113.991 76.8799 110.384 75.3907C109.824 75.1425 109.202 74.8943 108.829 74.3979C108.456 73.9015 108.518 73.0328 109.078 72.7846C109.326 72.6605 109.637 72.7846 109.948 72.7226C111.814 72.5364 112.996 71.6677 117.411 73.4051C115.981 72.5985 115.981 72.4123 114.737 71.2954C117.598 71.8539 122.697 76.3214 125.185 77.8727C127.237 79.1137 147.821 86.8699 155.035 91.3996C155.471 91.7098 155.968 92.0201 156.279 92.4544C157.399 94.0057 156.839 97.1702 155.595 98.6594C154.538 99.9004 152.486 100.273 150.807 100.149C149.625 100.087 148.692 99.2799 147.759 98.5974C140.856 93.3231 125.433 84.3879 124.749 84.45Z" stroke="#E6E6E6" stroke-width="2" stroke-miterlimit="10" stroke-linecap="round" stroke-linejoin="round"/>
<path d="M153.793 90.655C157.835 89.2279 164.863 69.434 165.298 68.1309C166.977 63.229 170.708 56.3414 173.756 52.1841" stroke="#E6E6E6" stroke-width="2" stroke-miterlimit="10" stroke-linecap="round" stroke-linejoin="round"/>
<path d="M150.062 100.148C150.933 102.258 153.918 104.74 155.908 105.733C157.961 106.726 160.199 107.222 162.438 107.532C163.433 107.656 164.49 107.781 165.485 107.781C166.356 107.718 167.227 107.532 168.035 107.284C172.886 105.795 176.555 101.514 178.296 96.7977C180.038 92.0199 180.66 84.5739 180.1 79.5479" stroke="#E6E6E6" stroke-width="2" stroke-miterlimit="10" stroke-linecap="round" stroke-linejoin="round"/>
<path d="M248.319 85.3805C243.033 88.8553 236.254 89.3517 230.222 87.3661C224.189 85.3805 218.965 81.4713 214.177 77.314C210.135 73.8392 206.279 70.1162 202.672 66.145C202.672 66.145 223.816 95.5567 230.097 105.795C237.498 117.771 257.025 155.249 257.025 155.249C257.025 155.249 266.291 163.874 268.841 167.224C273.256 173.057 286.627 198.125 286.627 198.125" stroke="#E6E6E6" stroke-width="2" stroke-miterlimit="10" stroke-linecap="round" stroke-linejoin="round"/>
<path d="M210.383 54.604C221.763 61.6156 219.4 59.63 231.776 64.6561" stroke="#E6E6E6" stroke-width="2" stroke-miterlimit="10" stroke-linecap="round" stroke-linejoin="round"/>
<path d="M220.772 46.2274C220.772 46.2274 218.906 47.9027 215.921 45.4207C214.18 44.0557 213.434 45.8551 213.434 45.8551C213.434 45.8551 216.232 49.2678 217.165 49.8263C218.533 50.757 223.695 51.936 225.125 53.177C231.779 58.8235 233.334 72.0401 241.294 83.085C241.792 83.7676 242.414 84.326 243.098 84.7604C245.896 86.4357 248.508 85.6291 249.441 83.8296C250.374 82.0302 250.312 79.9205 249.939 77.9349C249.068 73.2811 243.533 62.8568 240.672 59.0717C237.874 55.3487 228.732 44.8623 228.732 44.8623" stroke="#E6E6E6" stroke-width="2" stroke-miterlimit="10" stroke-linecap="round" stroke-linejoin="round"/>
<path d="M218.53 113.613L196.453 132.973" stroke="#E6E6E6" stroke-width="2" stroke-miterlimit="10" stroke-linecap="round" stroke-linejoin="round"/>
<path d="M167.598 135.083C171.702 139.178 176.864 143.273 181.839 146.251C186.814 149.23 192.722 150.967 198.443 149.974C200.433 149.602 202.424 148.92 204.414 148.485C207.71 147.803 211.192 147.865 214.488 148.733C218.344 149.726 221.889 151.836 225.869 152.146C226.553 152.208 227.299 152.208 227.983 151.898C229.103 151.464 229.849 150.409 230.782 149.664C232.336 148.299 234.513 147.679 236.503 147.989C238.804 148.361 240.794 149.788 242.846 150.843C244.899 151.96 247.448 152.643 249.501 151.588C250.185 151.215 250.807 150.657 251.553 150.285C252.299 149.912 253.916 149.974 254.538 150.471" stroke="#E6E6E6" stroke-width="2" stroke-miterlimit="10" stroke-linecap="round" stroke-linejoin="round"/>
<path d="M267.473 113.055L292.1 113.675L300.184 119.756L291.416 123.541L258.953 122.672" stroke="#E6E6E6" stroke-width="2" stroke-miterlimit="10"/>
<path d="M254.105 116.53L280.909 69.4958L290.051 65.2144L289.304 74.708L262.501 121.742L261.568 122.176C258.148 123.727 254.292 121.369 254.105 117.647V116.53Z" stroke="#E6E6E6" stroke-width="2" stroke-miterlimit="10"/>
<path d="M260.633 187.825V196.822" stroke="#E6E6E6" stroke-width="2" stroke-miterlimit="10" stroke-linecap="round" stroke-linejoin="round"/>
<path d="M324.441 112.621H341.854" stroke="#E6E6E6" stroke-width="2" stroke-miterlimit="10" stroke-linecap="round" stroke-linejoin="round"/>
<path d="M292.289 49.3295L295.274 45.4824" stroke="#E6E6E6" stroke-width="2" stroke-miterlimit="10" stroke-linecap="round" stroke-linejoin="round"/>
<path d="M322.137 78.3073L326.739 76.5078" stroke="#E6E6E6" stroke-width="2" stroke-miterlimit="10" stroke-linecap="round" stroke-linejoin="round"/>
<path d="M326.617 148.113L330.97 150.409" stroke="#E6E6E6" stroke-width="2" stroke-miterlimit="10" stroke-linecap="round" stroke-linejoin="round"/>
<path d="M303.297 177.214L305.847 181.31" stroke="#E6E6E6" stroke-width="2" stroke-miterlimit="10" stroke-linecap="round" stroke-linejoin="round"/>
<path d="M234.824 189.562C235.757 195.705 228.294 199.428 223.319 196.946C218.344 193.844 217.722 187.639 222.075 183.916C225.185 182.054 229.538 182.054 232.088 184.412C233.58 185.715 234.637 187.577 234.824 189.562Z" stroke="#E6E6E6" stroke-width="2" stroke-miterlimit="10"/>
<path d="M73.5051 168.776L64.2389 140.109L37.8086 173.678L69.7116 178.332" stroke="#E6E6E6" stroke-width="2" stroke-miterlimit="10"/>
<path d="M80.0384 212.149C80.0384 212.149 70.7722 186.15 70.3991 184.66C67.5384 174.174 73.7573 163.315 84.2673 160.461C94.7772 157.607 105.66 163.812 108.521 174.298C108.77 175.167 117.041 199.863 117.041 199.863L80.0384 212.149Z" stroke="#E6E6E6" stroke-width="2" stroke-miterlimit="10"/>
<path d="M118.035 199.49V209.232C136.381 218.726 149.752 193.72 162.438 193.906V185.157C144.901 181.806 136.194 207.557 118.035 199.49Z" stroke="#E6E6E6" stroke-width="2" stroke-miterlimit="10"/>
<path d="M109.141 73.4673C109.141 73.4673 116.728 74.0257 116.728 76.0113" stroke="#E6E6E6" stroke-width="2" stroke-miterlimit="10" stroke-linecap="round" stroke-linejoin="round"/>
<path d="M133.518 116.033C131.901 123.541 139.364 133.469 139.364 133.469L147.013 130.553C147.013 130.553 140.11 121.432 141.23 113.675L133.518 116.033Z" stroke="#E6E6E6" stroke-width="2" stroke-miterlimit="10"/>
<path d="M157.151 30.9009C157.151 30.9009 155.472 33.0106 152.549 38.0366C148.32 45.3585 150.746 54.666 154.85 57.7685C159.576 61.4294 168.034 61.6156 168.034 61.6156" stroke="#E6E6E6" stroke-width="2" stroke-miterlimit="10" stroke-linecap="round" stroke-linejoin="round"/>
<path d="M16.2927 190.865C17.2256 197.008 9.76287 200.731 4.78774 198.249C-0.187383 195.147 -0.809274 188.942 3.54396 185.219C6.65341 183.357 11.0066 183.357 13.5564 185.715C15.0489 187.018 16.1061 188.88 16.2927 190.865Z" stroke="#E6E6E6" stroke-width="2" stroke-miterlimit="10"/>
<path d="M229.852 150.905L275.685 201.352" stroke="#E6E6E6" stroke-width="2" stroke-miterlimit="10" stroke-linecap="round" stroke-linejoin="round"/>
<path d="M174.003 121.68C173.754 119.136 173.754 117.46 173.754 114.854C173.754 109.952 174.189 107.16 174.935 102.444" stroke="#E6E6E6" stroke-width="2" stroke-miterlimit="10" stroke-linecap="round" stroke-linejoin="round"/>
<path d="M219.339 191.734C202.362 182.427 188.742 167.659 180.969 149.789" stroke="#E6E6E6" stroke-width="2" stroke-miterlimit="10" stroke-linecap="round" stroke-linejoin="round"/>
<path d="M235.447 31.2114C243.719 28.6673 252.487 27.3022 261.567 27.3022C310.074 27.3022 349.378 66.5178 349.378 114.917C349.378 163.316 310.074 202.531 261.567 202.531C250.622 202.531 240.112 200.545 230.41 196.885" stroke="#E6E6E6" stroke-width="2" stroke-miterlimit="10" stroke-linecap="round" stroke-linejoin="round"/>
</svg>
